<?xml version="1.0" standalone="no"?>
<!DOCTYPE svg PUBLIC "-//W3C//DTD SVG 20010904//EN"
 "http://www.w3.org/TR/2001/REC-SVG-20010904/DTD/svg10.dtd">
<svg version="1.0" xmlns="http://www.w3.org/2000/svg"
 width="900.000000pt" height="900.000000pt" viewBox="0 0 900.000000 900.000000"
 preserveAspectRatio="xMidYMid meet">

<g transform="translate(0.000000,900.000000) scale(0.100000,-0.100000)"
fill="#000000" stroke="none">
<path d="M4050 8476 c-25 -7 -88 -19 -140 -25 -179 -24 -205 -28 -355 -65
-145 -36 -357 -97 -402 -117 -39 -16 -67 -26 -103 -39 -19 -7 -51 -20 -70 -28
-19 -8 -44 -18 -55 -22 -44 -19 -333 -162 -382 -190 -180 -102 -426 -271 -588
-404 -142 -117 -425 -390 -486 -471 -13 -16 -26 -32 -29 -35 -42 -38 -305
-405 -355 -495 -15 -27 -35 -61 -45 -75 -19 -27 -18 -27 -116 -220 -77 -150
-115 -234 -145 -318 -21 -59 -29 -79 -47 -122 -66 -159 -192 -695 -192 -821 0
-19 -7 -56 -15 -83 -22 -71 -22 -799 0 -889 8 -34 22 -118 31 -187 26 -195
133 -613 193 -755 5 -11 21 -51 36 -90 45 -114 154 -348 185 -395 9 -14 30
-50 46 -80 49 -94 201 -328 290 -446 172 -229 404 -474 624 -656 125 -105 124
-104 157 -125 15 -9 30 -20 33 -23 20 -23 307 -210 412 -270 132 -75 380 -192
508 -240 47 -17 94 -35 105 -40 11 -5 45 -17 75 -26 30 -8 64 -20 75 -25 57
-26 374 -100 525 -123 316 -49 346 -51 675 -51 337 0 374 3 700 56 126 20 460
99 500 118 11 5 45 17 75 26 30 9 66 21 80 27 30 13 54 22 100 38 195 70 511
234 735 383 99 66 109 73 214 152 51 38 105 79 120 90 14 11 31 24 37 30 6 5
40 35 75 65 250 214 526 536 720 840 133 210 309 548 344 660 4 14 16 43 26
65 10 22 30 78 44 125 15 47 31 94 36 105 25 56 100 373 123 525 49 316 51
346 51 675 0 322 -6 399 -51 685 -16 102 -110 501 -124 529 -4 9 -20 52 -35
96 -26 79 -39 113 -56 147 -5 10 -9 23 -9 29 0 7 -12 37 -26 68 -14 31 -37 81
-51 111 -31 68 -90 183 -116 230 -11 19 -30 53 -42 75 -233 420 -622 876 -989
1156 -50 39 -98 76 -106 82 -57 46 -362 247 -374 247 -2 0 -33 16 -68 37 -80
46 -290 153 -301 153 -5 0 -36 13 -70 29 -235 108 -659 229 -932 266 -66 9
-148 23 -182 31 -84 19 -824 19 -893 0z m1218 -203 c-10 -2 -26 -2 -35 0 -10
3 -2 5 17 5 19 0 27 -2 18 -5z m18 -104 c17 -34 13 -43 -28 -53 -33 -8 -42 5
-34 50 9 45 39 46 62 3z m-1886 10 c0 -5 -5 -30 -11 -53 -9 -38 -8 -49 10 -85
17 -32 23 -65 26 -144 2 -56 13 -138 24 -182 12 -44 21 -85 21 -92 0 -22 -41
-35 -149 -49 -58 -7 -164 -25 -236 -38 -71 -14 -206 -37 -300 -51 -93 -15
-194 -34 -222 -43 -52 -16 -53 -16 -85 8 -26 19 -49 25 -115 30 -45 3 -83 7
-86 10 -2 3 -12 19 -20 37 -9 17 -30 37 -46 44 -16 7 -27 17 -25 21 10 16 185
135 309 211 230 139 475 254 735 343 127 44 170 52 170 33z m3325 -528 c161
-113 310 -236 452 -374 132 -129 159 -165 171 -234 12 -69 3 -80 -34 -42 -16
17 -41 37 -56 45 -44 23 -236 56 -282 49 -25 -4 -96 -40 -181 -90 -191 -112
-184 -109 -191 -90 -4 9 -1 36 6 61 10 35 10 54 1 84 -16 53 -115 167 -158
181 -35 11 -115 9 -144 -5 -11 -5 -26 1 -44 18 -35 33 -67 39 -147 27 -84 -12
-106 -27 -178 -120 -32 -42 -98 -118 -147 -168 -110 -115 -110 -114 -273 -568
-70 -196 -146 -397 -198 -520 -27 -65 -32 -71 -76 -89 -40 -17 -48 -18 -61 -5
-12 12 -12 24 0 94 19 104 43 279 60 430 7 66 18 147 23 180 6 33 14 93 17
134 5 50 13 79 25 91 10 10 55 30 101 45 114 38 127 51 419 403 73 89 110 142
110 158 0 33 51 86 70 74 8 -6 30 -10 48 -10 18 0 31 -4 28 -9 -8 -13 236 -91
317 -101 74 -9 97 -6 97 15 0 6 7 26 15 43 26 50 57 259 48 315 -7 42 1 67 20
67 8 0 72 -40 142 -89z m-1476 45 c6 -7 12 -25 13 -40 1 -14 7 -26 13 -26 5 0
3 -5 -5 -10 -8 -5 -10 -10 -4 -10 6 0 9 -13 6 -31 -5 -36 -38 -55 -77 -45 -23
6 -25 9 -14 22 8 10 13 40 12 75 -1 45 2 61 15 69 23 13 28 12 41 -4z m184
-143 c-7 -2 -19 -2 -25 0 -7 3 -2 5 12 5 14 0 19 -2 13 -5z m-1828 -49 c90
-12 105 -15 100 -25 -4 -5 6 -9 22 -10 l28 -1 -30 -9 c-16 -5 -54 -14 -82 -21
-74 -17 -66 -30 15 -23 l67 5 -40 -14 c-22 -8 -64 -17 -94 -21 -29 -4 -48 -11
-41 -15 7 -4 0 -10 -19 -13 -17 -4 -31 -11 -31 -18 0 -7 11 -8 30 -4 17 4 30
4 30 1 0 -14 -59 -33 -245 -81 -161 -41 -199 -54 -197 -67 2 -11 -8 -18 -32
-22 -69 -13 -280 -76 -389 -117 -61 -23 -133 -47 -158 -54 -109 -31 -168 -85
-229 -207 -53 -107 -52 -114 8 -85 67 34 353 133 442 154 80 18 162 23 195 12
41 -15 132 -52 192 -80 34 -16 66 -29 70 -29 15 0 81 -68 110 -112 25 -39 28
-52 28 -128 -1 -75 -5 -93 -34 -155 -42 -88 -98 -172 -168 -252 -29 -34 -74
-99 -99 -144 -59 -106 -184 -292 -298 -443 -50 -67 -120 -161 -156 -211 -35
-49 -66 -92 -69 -95 -4 -3 -24 -32 -46 -65 -22 -33 -42 -62 -45 -65 -3 -3 -9
-12 -15 -22 -52 -86 -197 -286 -246 -338 -33 -36 -74 -83 -90 -104 -16 -21
-29 -36 -29 -32 0 4 -15 -10 -32 -31 -18 -20 -65 -71 -104 -112 -39 -42 -96
-104 -125 -137 -30 -34 -56 -60 -58 -58 -2 2 4 13 14 24 10 11 13 20 8 20 -6
0 -16 -7 -23 -15 -7 -9 -15 -13 -17 -11 -5 5 16 48 81 170 68 127 55 120 -178
-103 -31 -30 -54 -46 -50 -36 6 14 4 16 -6 10 -10 -6 -12 -4 -7 8 9 24 -6 21
-37 -8 -35 -32 -41 -32 -19 3 17 25 17 26 0 13 -9 -7 -17 -9 -17 -5 0 22 226
457 265 509 12 17 35 55 51 85 16 31 88 142 159 248 72 106 139 208 150 226
11 18 39 55 63 83 23 28 42 55 42 59 0 5 10 20 23 34 13 14 37 45 54 70 17 25
52 68 77 97 25 28 46 54 46 57 0 6 107 142 174 219 22 27 58 73 78 103 20 30
62 90 93 133 30 44 55 86 55 94 0 20 -62 30 -151 24 -56 -4 -85 -14 -200 -71
-223 -111 -455 -288 -583 -444 -40 -48 -74 -81 -81 -78 -14 5 -87 -83 -125
-151 -23 -42 -40 -55 -40 -31 0 6 -3 9 -6 5 -4 -3 -13 1 -21 9 -16 16 -15 30
17 194 10 52 24 127 30 165 18 101 44 203 89 345 22 69 56 184 76 255 20 72
65 193 100 270 88 193 88 194 90 248 1 33 -2 47 -12 47 -18 0 -16 24 5 48 17
21 191 82 372 132 25 7 65 18 90 25 25 8 88 23 140 35 52 12 106 26 120 30 14
5 43 11 65 15 22 3 69 12 105 20 113 26 354 74 390 79 39 5 254 -2 315 -10z
m1386 -40 c12 -11 44 -13 135 -9 137 5 521 9 639 6 44 -2 88 1 98 4 10 4 17 3
17 -4 0 -6 -12 -11 -27 -12 -16 0 -37 -3 -48 -5 -34 -8 -50 -12 -50 -14 0 -2
-22 -7 -50 -13 -8 -2 -18 -6 -21 -10 -4 -4 -16 -7 -26 -7 -10 0 -18 -4 -18 -8
0 -4 42 -8 93 -9 115 -1 128 -3 97 -13 -22 -7 -22 -8 -4 -9 11 -1 29 -8 40
-16 17 -13 17 -14 2 -15 -10 0 -17 -4 -15 -9 3 -11 -71 -81 -86 -81 -7 0 -5
-6 5 -13 15 -12 13 -15 -15 -30 -18 -9 -45 -19 -62 -23 -16 -4 -34 -10 -40
-14 -10 -8 -227 -44 -327 -55 -57 -6 -58 -7 -59 -38 -3 -101 -10 -181 -29
-332 -6 -49 -13 -110 -15 -135 -2 -25 -9 -72 -14 -105 -5 -33 -15 -107 -21
-165 -6 -58 -20 -157 -30 -220 -10 -63 -18 -128 -18 -145 -1 -16 -10 -71 -21
-120 -19 -86 -23 -136 -11 -131 3 1 16 7 30 13 57 26 211 63 301 73 121 12
147 22 155 57 4 15 10 33 14 38 8 10 36 86 71 190 11 33 24 69 29 80 5 11 23
61 40 110 18 50 36 99 41 110 13 31 162 484 214 650 26 83 53 153 59 157 6 4
40 8 76 8 59 0 67 -3 97 -32 18 -18 33 -38 33 -44 0 -28 21 -23 50 10 21 23
38 34 53 32 50 -7 83 -20 107 -42 14 -12 38 -28 53 -33 19 -8 27 -17 25 -29
-2 -9 3 -22 12 -29 13 -11 12 -12 -8 -13 -19 0 -21 -3 -13 -18 6 -12 -1 -50
-26 -132 -19 -63 -36 -119 -37 -125 -1 -5 -4 -14 -8 -20 -3 -5 -22 -64 -43
-130 -20 -66 -58 -181 -85 -255 -26 -74 -58 -166 -71 -205 -12 -38 -26 -74
-30 -80 -4 -5 -10 -28 -15 -49 l-7 -39 79 8 c43 4 90 8 104 10 14 1 89 3 168
3 l142 2 11 28 c17 44 93 326 136 502 13 58 27 112 29 120 33 133 54 244 48
258 -4 9 -13 36 -19 59 -11 39 -10 44 10 63 34 32 150 29 198 -5 15 -11 24
-11 39 -2 15 10 20 9 28 -3 5 -8 12 -11 16 -7 11 11 35 -43 41 -93 6 -49 -31
-238 -73 -370 -12 -41 -32 -113 -43 -160 -10 -47 -37 -137 -59 -201 -23 -64
-44 -133 -48 -154 l-7 -37 62 4 c33 2 61 0 61 -4 0 -4 -4 -8 -10 -8 -5 0 -10
-5 -10 -10 0 -6 11 -8 28 -4 l27 7 -24 -26 c-13 -14 -60 -44 -105 -68 -44 -23
-84 -47 -89 -53 -4 -6 -14 -36 -23 -66 -9 -30 -48 -145 -86 -255 -39 -110 -80
-227 -90 -260 -11 -33 -26 -74 -34 -92 -8 -17 -14 -35 -14 -41 0 -25 -216
-501 -250 -552 -5 -8 -15 -26 -21 -40 -6 -14 -13 -20 -16 -13 -2 7 1 22 7 33
6 12 9 25 5 28 -8 8 -25 -18 -25 -40 0 -9 -4 -19 -9 -22 -17 -11 -21 74 -7
132 8 31 31 136 50 232 58 285 65 317 107 490 23 91 43 173 44 182 2 9 8 25
14 36 5 10 13 42 17 70 7 57 6 58 -55 43 -85 -21 -178 -42 -201 -45 -14 -2
-54 -11 -90 -21 -36 -9 -76 -18 -90 -19 -14 -1 -60 -11 -102 -21 -68 -16 -79
-22 -93 -49 -9 -17 -20 -39 -25 -48 -6 -10 -14 -26 -20 -35 -12 -23 -119 -229
-138 -268 -9 -16 -18 -32 -22 -35 -3 -3 -19 -30 -34 -60 -15 -30 -33 -59 -39
-65 -11 -11 -9 -3 17 58 25 58 1 44 -29 -18 -15 -30 -30 -55 -32 -55 -3 0 -2
16 1 35 11 54 -8 42 -54 -37 -24 -40 -69 -116 -100 -168 -31 -52 -71 -121 -89
-153 -18 -31 -37 -55 -41 -52 -5 3 -7 12 -3 20 3 8 1 15 -5 15 -6 0 -14 -12
-19 -27 l-9 -27 -24 46 c-25 52 -26 49 9 283 21 146 52 280 102 450 16 56 29
105 29 110 0 6 -59 9 -152 7 -171 -4 -233 6 -225 38 3 10 -1 21 -8 24 -9 3
-16 -5 -19 -22 -13 -68 -45 -273 -51 -326 -3 -32 -30 -194 -60 -360 -29 -166
-61 -348 -69 -406 -9 -58 -34 -161 -55 -230 -78 -247 -89 -286 -96 -320 -8
-35 -8 -35 -17 -10 -6 15 -12 20 -15 13 -3 -7 -11 -13 -19 -13 -12 0 -14 31
-14 174 0 96 -4 177 -8 180 -4 2 -21 -113 -36 -257 -30 -267 -44 -351 -45
-272 -2 86 19 639 30 790 6 88 9 192 7 230 l-3 70 -22 -65 c-22 -63 -22 -63
-17 -20 l5 45 -15 -31 c-23 -52 -44 -163 -56 -304 -6 -74 -15 -157 -19 -185
-11 -68 -2 757 9 865 5 47 12 173 15 280 3 107 8 232 11 276 6 81 6 82 36 88
25 5 29 10 25 28 -20 84 -20 99 2 105 18 5 21 13 21 62 0 94 59 579 92 749 11
57 17 106 15 108 -3 3 4 44 14 92 10 47 19 105 19 129 0 40 -2 43 -22 38 -13
-2 -57 -11 -98 -20 -41 -8 -89 -19 -107 -24 -17 -5 -33 -7 -36 -5 -2 2 -23 -3
-47 -11 -23 -8 -59 -15 -79 -15 -20 0 -106 -11 -191 -25 -85 -14 -158 -25
-162 -25 -3 0 -4 9 -1 20 3 11 10 20 17 20 6 0 25 11 41 25 l30 24 -45 2 c-25
2 -54 2 -65 1 -11 0 -40 3 -65 9 -25 5 -63 12 -85 14 -22 3 -52 8 -66 11 -15
3 -105 -7 -200 -22 -96 -15 -192 -27 -213 -26 -24 1 -47 -4 -57 -14 -13 -12
-257 -65 -294 -63 -15 0 53 26 103 39 23 6 42 16 42 21 0 7 -10 9 -27 4 -59
-15 -168 -32 -177 -27 -6 3 56 27 136 53 192 62 207 72 98 64 -47 -4 -103 -11
-125 -16 -22 -5 -56 -8 -75 -8 -33 1 -33 2 10 9 130 24 260 55 260 62 0 4 -6
8 -12 9 -7 0 -3 4 10 10 13 5 21 13 18 18 -12 18 351 106 564 135 63 9 176 25
250 36 152 21 299 40 356 45 22 1 89 8 149 15 61 7 126 13 145 15 60 4 124 17
137 27 7 5 21 7 31 4 13 -4 22 -1 25 9 7 16 31 11 58 -11z m2395 -617 c18 -23
35 -29 115 -41 88 -15 96 -18 127 -53 18 -21 44 -58 58 -83 14 -25 54 -88 90
-140 79 -117 188 -334 307 -615 26 -62 74 -209 98 -303 10 -42 11 -57 1 -72
-16 -27 -16 -29 12 -40 27 -10 37 -37 62 -169 30 -162 35 -203 28 -219 -13
-30 -12 -41 2 -53 14 -12 20 -69 7 -69 -5 0 -27 10 -50 22 -35 19 -44 20 -57
9 -9 -8 -16 -24 -16 -37 0 -31 -17 -75 -40 -99 -10 -11 -21 -43 -25 -71 l-6
-51 32 -7 c17 -3 47 -6 66 -6 32 0 35 -4 59 -59 20 -46 33 -62 55 -70 25 -8
29 -16 31 -48 1 -21 1 -47 0 -58 -1 -11 -3 -53 -6 -94 -2 -40 -8 -77 -13 -81
-9 -10 -174 -93 -312 -157 -89 -41 -93 -44 -77 -61 9 -10 16 -28 16 -40 0 -34
18 -72 35 -72 8 0 21 16 29 35 8 19 21 38 29 41 7 2 51 -9 98 -26 46 -17 103
-38 126 -46 l41 -15 -5 -57 c-2 -31 -9 -71 -14 -87 -9 -31 -10 -31 -87 -32
-83 -2 -385 41 -591 84 l-124 25 -106 -50 c-58 -28 -276 -132 -484 -231 l-378
-181 -79 0 c-44 0 -128 -7 -187 -15 -59 -8 -204 -24 -321 -35 -116 -11 -218
-21 -224 -23 -9 -1 -15 17 -18 56 -3 36 -11 61 -20 67 -35 22 -104 23 -196 1
-105 -24 -142 -26 -211 -10 -44 10 -54 9 -128 -21 -59 -23 -105 -34 -175 -40
-52 -4 -108 -13 -125 -19 -37 -15 -163 -31 -182 -24 -12 5 -14 16 -8 52 4 25
9 71 10 101 4 79 24 251 31 261 2 4 20 11 39 15 67 12 99 69 125 217 21 123
33 163 60 205 32 48 55 154 47 213 -7 56 17 218 38 260 12 23 18 53 17 93 -1
33 5 96 14 140 33 164 64 147 56 -31 -3 -82 -1 -121 8 -138 7 -13 42 -46 79
-72 36 -26 89 -69 118 -95 44 -39 60 -48 91 -48 53 0 75 19 117 102 20 40 51
89 69 108 48 51 66 81 66 110 1 37 23 60 64 67 46 7 72 34 131 135 27 46 69
117 93 158 25 41 59 104 75 140 16 36 41 77 55 93 28 30 69 36 79 11 5 -13
-23 -115 -59 -219 -15 -42 -26 -105 -36 -207 -6 -59 -17 -104 -36 -141 -58
-120 -72 -225 -37 -284 20 -32 48 -49 300 -179 95 -49 133 -64 166 -64 45 0
59 10 68 50 4 14 22 46 41 70 19 25 46 77 61 115 15 39 48 113 72 165 52 111
113 279 113 312 0 13 11 47 25 76 13 29 33 81 44 115 10 34 33 90 49 125 16
34 33 88 37 120 3 31 15 72 26 90 11 19 24 54 30 80 13 58 16 62 95 108 146
86 176 178 68 209 -48 13 -48 25 -6 145 16 47 35 126 42 175 7 55 24 117 42
160 16 39 36 85 44 103 8 18 14 50 14 71 0 23 10 57 25 82 14 24 25 54 25 66
0 12 3 29 7 39 5 15 7 15 12 3 3 -9 16 -27 27 -42z m-2792 -195 c4 -6 -42
-330 -73 -517 -6 -33 -13 -98 -17 -145 -6 -91 -34 -212 -60 -263 -12 -23 -17
-67 -19 -176 -2 -80 -8 -305 -15 -499 -10 -315 -9 -370 6 -500 11 -101 14
-178 10 -244 l-7 -98 41 -40 c44 -43 45 -50 29 -116 -9 -36 -9 -52 4 -87 9
-23 23 -98 31 -167 8 -69 19 -138 25 -153 15 -39 -4 -65 -57 -79 -27 -7 -68
-32 -113 -69 -38 -33 -73 -59 -77 -59 -5 0 -59 -55 -122 -122 -63 -68 -130
-135 -149 -150 -20 -14 -58 -59 -86 -99 -60 -87 -129 -159 -210 -219 -68 -49
-243 -205 -265 -235 -8 -11 -62 -67 -120 -125 -58 -58 -123 -131 -144 -163
-34 -50 -38 -61 -30 -85 l10 -27 139 3 c138 3 140 3 220 41 75 37 152 95 298
227 39 34 73 56 102 63 77 19 90 0 56 -86 -14 -38 -17 -65 -14 -124 5 -73 4
-78 -18 -92 -13 -8 -216 -106 -451 -217 l-427 -204 61 -55 c34 -31 91 -73 127
-94 36 -21 83 -55 103 -74 21 -20 57 -48 82 -62 24 -14 68 -45 98 -68 31 -25
74 -47 103 -54 63 -16 99 -41 136 -92 33 -45 36 -57 14 -57 -36 0 -140 63
-425 257 -25 17 -76 50 -115 74 -38 24 -90 59 -115 79 -93 76 -140 102 -166
96 -25 -7 -384 -176 -648 -306 l-139 -69 -81 62 c-537 409 -979 1006 -1237
1672 -71 184 -88 236 -118 360 -12 50 -31 122 -41 160 -20 77 -39 187 -67 395
-20 150 -25 604 -9 778 l9 93 47 24 47 24 7 -77 c3 -42 9 -79 14 -83 4 -4 22
-5 40 -2 35 6 42 25 18 52 -8 9 -23 40 -34 69 l-20 52 40 21 c38 19 39 21 23
39 -16 17 -15 19 5 30 17 9 26 8 46 -5 24 -15 28 -15 81 9 68 32 67 32 59 2
-3 -14 7 -61 29 -122 19 -55 35 -106 35 -114 1 -26 26 -51 45 -44 22 9 17 37
-29 143 l-36 84 21 33 c16 26 18 38 10 53 -14 25 -5 30 429 238 l345 166 98 6
97 7 59 58 c33 32 64 57 70 55 13 -5 -122 -213 -202 -314 -26 -33 -75 -105
-109 -160 -34 -55 -91 -142 -126 -193 -78 -113 -127 -197 -186 -320 -25 -52
-58 -110 -74 -130 -77 -99 -118 -217 -90 -254 19 -25 132 -52 187 -44 36 5 49
2 65 -13 38 -36 67 -35 138 3 36 19 85 40 109 47 24 7 62 28 83 46 22 18 58
38 80 44 55 14 91 43 222 173 60 61 139 139 175 172 133 127 257 261 294 318
22 33 62 85 91 115 28 31 82 103 120 161 81 125 224 316 288 385 59 63 96 116
130 184 15 29 55 83 90 120 110 118 133 166 145 300 l6 74 240 115 c252 120
276 128 485 157 58 8 121 19 140 24 46 12 78 13 84 3z m2586 -656 c0 -3 -4 -8
-10 -11 -5 -3 -10 -1 -10 4 0 6 5 11 10 11 6 0 10 -2 10 -4z m-2023 -573 c-3
-16 -14 -46 -24 -68 l-18 -40 -3 54 c-4 66 1 81 29 81 18 0 21 -4 16 -27z
m-601 -1923 c-44 -75 -46 -85 -5 -34 43 55 46 55 17 4 -57 -100 -65 -116 -70
-142 -5 -24 -2 -28 19 -28 13 0 26 6 29 14 8 20 46 32 139 46 44 6 105 15 135
20 30 5 93 14 140 20 47 7 104 16 127 21 23 5 57 9 75 9 18 0 41 7 52 15 12 9
25 11 35 6 9 -5 70 -3 141 4 213 22 280 26 240 14 -19 -5 -48 -16 -65 -24 -29
-14 -29 -15 19 -8 34 4 47 3 43 -5 -4 -5 -3 -12 3 -14 6 -2 -9 -24 -33 -48
-44 -46 -98 -69 -199 -85 -35 -5 -36 -7 -42 -58 -4 -29 -11 -80 -16 -114 -6
-35 -14 -92 -20 -128 -26 -175 -33 -215 -45 -275 -16 -75 -25 -126 -31 -184
l-5 -41 36 53 c19 30 35 56 35 58 0 3 5 10 10 17 6 7 38 56 73 109 l63 98 34
-35 c19 -19 40 -31 45 -27 6 4 41 54 77 112 37 58 72 110 78 117 5 7 10 15 10
18 0 4 13 25 29 48 33 48 91 145 91 153 0 2 -25 1 -55 -2 -67 -8 -106 6 -124
47 -18 40 -9 57 42 79 47 21 121 33 302 50 66 7 170 18 230 25 134 17 216 20
405 16 92 -1 138 -6 125 -11 l-20 -9 20 -1 c18 -1 17 -2 -5 -14 -52 -29 -381
-132 -586 -185 -37 -10 -43 -17 -77 -81 l-36 -71 28 6 c24 5 50 1 131 -20 8
-2 20 -4 26 -4 5 -1 19 -7 29 -15 18 -13 16 -15 -25 -34 -99 -44 -175 -72
-199 -72 -64 0 -70 -7 -138 -147 -36 -74 -63 -137 -59 -140 5 -5 175 44 235
68 13 5 78 9 146 8 140 -2 151 -11 78 -63 -41 -29 -79 -50 -233 -134 -36 -19
-85 -46 -110 -60 -137 -77 -188 -104 -315 -165 -178 -87 -210 -104 -263 -139
-39 -27 -44 -28 -64 -14 -12 9 -30 16 -38 16 -10 0 -24 20 -37 50 -12 28 -25
50 -30 50 -5 0 -15 -35 -22 -77 -20 -119 -33 -162 -48 -156 -8 3 -13 25 -14
62 l-2 56 -12 -75 c-12 -74 -12 -73 -14 110 -1 140 -4 181 -13 172 -6 -6 -15
-53 -19 -104 -5 -59 -6 15 -5 204 l3 297 -26 4 c-23 4 -22 4 6 6 17 0 34 5 37
10 3 5 13 65 21 133 15 122 26 199 45 312 5 33 8 61 7 63 -2 1 -28 -3 -58 -11
-55 -14 -155 -32 -218 -39 l-35 -4 30 23 29 24 -50 1 c-27 1 -61 4 -74 8 -13
3 -65 0 -115 -7 -50 -7 -113 -16 -139 -19 -27 -3 -50 -10 -52 -17 -23 -78 -88
-281 -125 -396 -102 -313 -140 -433 -140 -445 0 -30 -195 -284 -208 -271 -1 2
8 28 22 57 79 173 97 228 55 162 -32 -51 -38 -39 -18 34 10 37 17 69 14 71 -2
3 -12 -1 -22 -9 -15 -12 -14 -8 3 21 11 19 23 44 26 55 3 11 18 50 32 88 l26
67 -27 -17 c-18 -12 -28 -14 -30 -6 -3 9 -16 8 -51 -1 -72 -20 -188 -46 -206
-46 -9 0 -74 -52 -145 -116 -118 -106 -241 -203 -241 -190 0 3 15 22 33 43 17
21 25 33 17 27 -20 -15 -148 -84 -155 -84 -3 0 6 12 20 28 27 28 49 62 41 62
-3 0 -44 -22 -91 -49 -74 -43 -83 -46 -65 -23 12 15 35 45 52 67 45 58 308
315 408 398 122 103 113 94 313 312 166 180 435 447 474 468 13 8 13 5 -1 -20
-24 -47 5 -38 60 18 26 27 50 47 52 45 2 -3 -12 -32 -32 -66z m2494 -195 c117
-32 483 -109 595 -124 44 -7 125 -20 180 -31 55 -11 134 -25 176 -31 l77 -12
-8 -27 c-17 -61 -168 -371 -237 -487 -44 -76 -58 -93 -78 -93 -13 0 -29 -6
-34 -12 -68 -83 -72 -91 -44 -106 15 -9 14 -13 -8 -48 -73 -119 -285 -376
-335 -406 -18 -10 -31 -25 -28 -32 3 -7 -4 -20 -15 -30 -18 -16 -22 -16 -50
-2 -16 9 -36 16 -42 16 -7 0 -21 7 -31 17 -22 20 -33 12 -20 -14 13 -24 4 -38
-28 -48 -14 -4 -48 -18 -75 -31 -38 -17 -61 -21 -93 -17 -23 3 -42 9 -42 13 0
18 -97 40 -171 40 -69 0 -85 4 -145 35 -37 19 -79 35 -94 35 -15 0 -36 10 -50
25 -12 13 -27 22 -31 19 -13 -8 -86 15 -158 50 -35 17 -69 31 -75 33 -6 1 -54
18 -106 38 -52 20 -112 37 -132 39 -20 2 -48 13 -63 24 -14 11 -54 30 -88 42
-85 28 -94 34 -78 54 19 22 84 20 123 -4 18 -11 44 -20 57 -20 32 0 97 68 138
145 39 75 58 92 158 145 103 55 177 104 191 127 6 10 15 37 18 60 5 29 14 43
31 51 33 15 41 1 48 -90 3 -42 10 -85 16 -96 14 -26 142 -89 209 -103 59 -12
97 -6 127 20 11 10 39 23 61 29 81 23 66 75 -26 93 -33 6 -64 17 -68 23 -3 6
-7 49 -8 96 -1 105 -8 128 -40 136 -41 10 -74 -10 -74 -46 0 -38 -23 -40 -70
-5 -45 33 -67 32 -106 -6 -30 -29 -34 -30 -68 -19 -23 7 -101 11 -229 9 -106
-1 -199 1 -205 5 -16 9 -15 41 1 54 6 5 28 13 47 17 54 12 231 83 252 101 23
21 23 65 1 93 -10 12 -45 30 -78 39 -36 11 -60 24 -60 32 0 16 139 57 470 139
262 65 321 72 415 46z m-1440 -20 c0 -2 -10 -9 -22 -15 -22 -11 -22 -10 -4 4
21 17 26 19 26 11z m-95 -55 c-3 -5 -11 -10 -16 -10 -6 0 -7 5 -4 10 3 6 11
10 16 10 6 0 7 -4 4 -10z m-11 -145 l28 -20 -19 -41 c-10 -22 -35 -55 -56 -73
-20 -18 -37 -39 -37 -46 0 -8 -11 -27 -25 -42 l-26 -28 3 43 c3 31 0 41 -9 38
-7 -3 -13 -2 -13 2 0 19 29 151 40 182 22 60 30 64 60 33 14 -15 38 -37 54
-48z m-734 30 c17 -9 56 -14 117 -15 50 0 94 -4 98 -9 3 -5 -2 -51 -11 -103
-9 -51 -13 -108 -10 -127 7 -44 -12 -130 -35 -160 -12 -14 -19 -40 -19 -65 0
-54 -18 -116 -33 -116 -7 0 -36 -22 -64 -50 -54 -53 -83 -63 -83 -30 0 43 28
89 57 95 48 11 53 14 53 32 -1 10 -9 32 -18 50 l-17 32 -205 -100 c-236 -115
-299 -144 -305 -137 -9 9 83 293 114 353 17 33 31 76 31 95 0 38 27 141 53
203 11 25 27 42 49 52 44 19 194 19 228 0z m136 -792 c-11 -97 -8 -143 11
-185 13 -31 13 -40 3 -53 -18 -22 -33 -18 -52 14 -9 17 -26 31 -40 33 -15 2
-23 10 -23 23 0 12 -8 21 -20 23 -24 5 -43 19 -55 43 -18 33 113 168 164 169
17 0 18 -5 12 -67z m-291 47 c4 -6 1 -17 -5 -25 -14 -17 -98 -50 -107 -42 -8
9 16 37 52 59 34 20 51 23 60 8z m52 -145 c3 -9 -8 -38 -26 -66 -42 -68 -45
-93 -15 -128 38 -46 31 -115 -13 -132 -26 -10 -66 7 -138 55 -20 14 -52 30
-72 37 -31 10 -38 9 -64 -10 -16 -12 -33 -20 -37 -17 -4 3 -14 1 -22 -5 -11
-6 -8 -9 12 -9 36 0 111 -33 167 -74 77 -56 176 -106 209 -106 17 0 42 4 57
10 19 7 33 6 53 -4 15 -8 49 -17 75 -21 36 -6 75 -25 155 -79 112 -75 131 -96
87 -96 -26 0 -77 -41 -86 -69 -10 -28 -29 1 -29 43 0 56 -32 104 -90 134 -43
22 -54 23 -235 21 -410 -3 -463 -1 -475 20 -5 11 -11 81 -12 158 l-3 138 25
-3 c14 -2 61 -5 105 -7 72 -2 83 0 114 23 30 22 33 28 28 63 -3 22 -1 42 5 45
5 3 27 -2 49 -11 31 -15 41 -15 54 -5 8 7 15 17 15 22 0 18 42 69 64 78 30 13
36 12 43 -5z m1295 -154 c24 -16 55 -40 70 -54 26 -24 61 -43 240 -126 47 -22
89 -45 93 -51 4 -6 -12 -29 -35 -51 -22 -22 -38 -44 -35 -49 4 -6 -8 -10 -25
-10 -43 0 -30 -15 25 -29 28 -7 51 -20 61 -36 14 -21 75 -65 91 -65 3 0 3 18
-1 39 l-6 39 53 5 c28 2 66 10 84 17 27 12 40 11 95 -5 34 -10 70 -25 78 -32
13 -13 13 -15 -5 -25 -11 -6 -34 -26 -52 -45 -24 -25 -40 -33 -65 -33 -34 0
-58 -15 -58 -35 0 -17 45 -35 88 -35 57 0 86 -20 92 -60 5 -30 1 -38 -24 -56
l-29 -20 -73 48 c-41 27 -74 53 -74 59 0 6 -20 19 -44 29 -24 11 -49 27 -56
35 -14 17 -66 20 -75 5 -3 -6 2 -14 12 -18 22 -9 27 -30 12 -48 -36 -44 -205
21 -185 71 3 9 -3 40 -13 69 -12 34 -19 85 -20 141 -1 48 -6 96 -12 106 -12
23 -53 25 -118 4 -25 -8 -80 -24 -123 -35 -66 -18 -89 -23 -143 -29 -6 0 -28
-17 -49 -37 -49 -46 -115 -77 -134 -62 -7 6 -10 18 -7 25 10 28 -6 61 -33 68
-42 10 -112 45 -112 55 0 5 9 11 19 15 43 13 308 176 364 223 47 38 63 37 129
-7z m-2072 -100 c0 -13 -32 -47 -62 -66 -26 -16 -26 -16 -21 4 9 34 83 90 83
62z m1370 -20 c0 -5 19 -18 43 -29 38 -19 40 -21 15 -22 -15 0 -30 5 -33 10
-3 6 -16 10 -28 10 -18 0 -19 -2 -7 -10 13 -9 13 -10 0 -10 -21 -1 16 -21 55
-31 l30 -7 -34 -1 c-45 -1 -112 19 -118 36 -7 18 35 63 59 63 10 0 18 -4 18
-9z m-1268 -33 c2 -13 0 -54 -4 -93 -5 -38 -5 -88 -2 -110 3 -22 1 -71 -5
-108 -8 -54 -7 -75 5 -102 8 -19 14 -54 14 -77 1 -24 7 -54 15 -68 14 -24 21
-80 10 -80 -43 0 -137 101 -188 203 -62 123 -55 243 21 349 72 101 127 136
134 86z m1398 -44 c0 -2 -9 -4 -21 -4 -11 0 -18 4 -14 10 5 8 35 3 35 -6z
m-60 -40 c0 -14 -3 -15 -17 -3 -10 7 -20 15 -22 16 -2 2 5 3 17 3 14 0 22 -6
22 -16z m671 -84 c22 -12 27 -77 7 -102 -32 -39 -143 -24 -197 28 -24 23 -24
24 -6 44 10 11 32 24 49 29 43 13 124 13 147 1z m-1511 -99 c8 0 82 3 164 5
218 8 266 -16 266 -132 0 -37 -6 -54 -24 -73 -30 -33 -43 -138 -18 -160 14
-13 13 -15 -4 -22 -57 -20 -93 -29 -118 -29 l-27 0 3 -140 c4 -170 2 -172
-102 -178 -63 -4 -74 -1 -125 27 -36 20 -68 31 -95 31 -49 0 -80 27 -80 69 0
22 -6 31 -22 37 -13 3 -35 15 -50 25 -16 12 -43 19 -72 19 -45 0 -46 0 -46 33
0 26 -6 36 -25 45 -22 10 -25 18 -25 62 0 46 2 50 24 50 31 0 36 19 36 163 0
110 1 117 20 117 16 0 20 7 20 31 l0 31 143 -6 c78 -3 149 -5 157 -5z m2570
-8 c0 -5 -15 -20 -34 -35 l-35 -28 -20 26 c-11 15 -18 30 -15 35 6 11 104 12
104 2z m-2034 -463 c31 -10 72 -32 93 -47 40 -31 7 -29 341 -21 143 4 146 4
223 41 43 20 89 37 103 37 31 0 119 -41 159 -75 29 -24 29 -25 11 -40 -11 -8
-30 -15 -42 -15 -12 0 -41 -9 -65 -19 -24 -11 -78 -24 -119 -30 -41 -7 -119
-23 -174 -38 -76 -20 -109 -24 -145 -18 -79 13 -113 7 -146 -24 -16 -17 -43
-33 -60 -36 -16 -4 -82 -31 -145 -60 -63 -29 -139 -59 -167 -66 -51 -12 -55
-12 -110 15 -32 15 -71 38 -87 51 l-28 23 35 11 c20 7 47 26 61 42 14 16 29
29 33 29 5 0 22 -13 38 -30 38 -40 110 -56 189 -41 68 13 88 26 84 55 -4 25
-53 45 -115 45 -34 1 -46 6 -59 27 -15 22 -16 32 -5 82 7 31 15 72 18 90 6 38
7 38 79 12z m954 -224 c0 -13 -295 -117 -445 -157 -22 -6 -53 -16 -68 -22 -34
-12 -50 0 -45 34 4 32 40 47 140 60 46 5 117 21 159 35 105 34 259 64 259 50z
m-755 -202 c0 -26 -4 -30 -40 -35 -147 -23 -198 -30 -202 -25 -12 11 209 100
232 92 6 -1 10 -16 10 -32z"/>
<path d="M4567 5383 c-19 -34 -43 -263 -27 -263 12 0 17 22 30 120 5 47 13
100 16 118 4 29 -8 45 -19 25z"/>
<path d="M4671 4284 c0 -11 3 -14 6 -6 3 7 2 16 -1 19 -3 4 -6 -2 -5 -13z"/>
<path d="M7645 6030 c-9 -14 11 -38 38 -46 12 -3 41 -15 64 -25 55 -25 85 -14
101 37 6 21 9 40 7 42 -2 3 -32 -1 -67 -7 -46 -9 -71 -9 -91 -2 -35 14 -44 14
-52 1z"/>
<path d="M8110 5442 c0 -12 23 -32 37 -32 7 0 13 9 13 20 0 15 -7 20 -25 20
-14 0 -25 -4 -25 -8z"/>
<path d="M7938 5149 c-25 -14 -22 -26 12 -44 42 -22 60 -19 60 8 0 41 -34 59
-72 36z"/>
<path d="M7815 5114 c-16 -2 -73 -9 -125 -14 -52 -6 -126 -15 -165 -20 -38 -5
-126 -17 -195 -25 -69 -9 -140 -21 -159 -27 -29 -9 -31 -12 -17 -20 12 -7 30
-5 57 6 79 32 193 12 203 -36 3 -13 7 -32 8 -43 2 -11 10 -20 18 -20 11 0 16
13 18 46 5 71 35 94 122 94 92 0 110 -16 110 -99 0 -99 15 -131 38 -81 6 13
29 36 52 50 22 14 40 33 40 42 0 10 18 43 41 75 22 32 38 64 36 71 -3 6 -6 3
-7 -8 -1 -18 -1 -19 -11 -2 -5 9 -15 16 -22 16 -7 -1 -25 -4 -42 -5z"/>
<path d="M8198 5093 c6 -2 18 -2 25 0 6 3 1 5 -13 5 -14 0 -19 -2 -12 -5z"/>
<path d="M7360 4510 c-13 -9 -13 -11 0 -20 20 -13 70 -13 70 0 0 6 -12 15 -26
20 -30 12 -26 12 -44 0z"/>
<path d="M5684 4473 c-41 -37 -78 -56 -106 -55 -10 0 -28 -11 -40 -26 -13 -15
-30 -27 -38 -27 -8 0 -21 -13 -29 -30 -8 -16 -18 -38 -23 -48 -13 -27 -18 -96
-7 -103 5 -3 7 -9 4 -14 -9 -14 49 -31 135 -39 95 -10 120 -28 120 -85 0 -41
15 -55 54 -51 92 12 338 47 381 55 28 5 71 12 98 15 26 4 47 10 47 14 0 5 -10
19 -23 33 -18 19 -22 34 -19 60 5 42 1 44 -113 92 -110 47 -255 119 -300 149
-24 16 -31 27 -25 37 12 21 -9 46 -46 53 -25 5 -37 0 -70 -30z"/>
<path d="M7580 4453 c-48 -9 -42 -21 14 -28 61 -8 90 -2 84 18 -5 13 -55 18
-98 10z"/>
<path d="M6795 4412 c-28 -21 -58 -49 -69 -60 -21 -25 -18 -27 54 -37 72 -9
161 -63 186 -110 20 -39 21 -40 82 -43 l62 -3 0 44 c0 30 7 53 22 72 15 19 19
32 12 42 -14 23 -220 124 -262 130 -33 4 -44 0 -87 -35z"/>
<path d="M6490 4390 c-8 -5 -12 -12 -8 -15 9 -9 59 6 52 16 -7 12 -25 11 -44
-1z"/>
<path d="M6174 4365 c22 -17 42 -19 50 -6 7 11 -17 21 -47 21 -22 -1 -22 -1
-3 -15z"/>
<path d="M6340 4360 c0 -5 4 -10 9 -10 6 0 13 5 16 10 3 6 -1 10 -9 10 -9 0
-16 -4 -16 -10z"/>
<path d="M6240 4329 c0 -5 5 -7 10 -4 6 3 10 8 10 11 0 2 -4 4 -10 4 -5 0 -10
-5 -10 -11z"/>
<path d="M3958 6213 c7 -3 16 -2 19 1 4 3 -2 6 -13 5 -11 0 -14 -3 -6 -6z"/>
<path d="M3906 6191 c-4 -6 -19 -11 -34 -11 -15 0 -35 -7 -45 -15 -11 -7 -36
-16 -58 -20 -25 -4 -40 -13 -44 -26 -4 -10 -11 -19 -16 -19 -5 0 -8 -3 -7 -7
1 -5 -15 -43 -35 -87 -43 -90 -41 -86 -22 -86 8 0 12 -6 10 -12 -3 -7 5 -24
18 -38 39 -43 45 -92 53 -400 3 -162 9 -358 13 -435 l6 -140 77 -8 c61 -6 99
-17 175 -53 54 -25 100 -46 103 -46 3 0 13 -4 23 -10 18 -9 18 -3 16 124 -2
73 0 158 3 188 4 30 9 111 13 179 3 68 10 132 15 142 7 13 6 22 -6 33 -8 9
-11 16 -5 16 6 0 11 13 11 29 0 16 7 46 16 67 11 27 14 53 9 90 -5 45 -4 52
13 56 16 5 21 18 27 84 4 43 13 88 21 99 9 12 14 47 14 97 0 58 3 78 13 78 10
0 12 10 9 32 -5 33 -23 58 -41 58 -6 0 -11 4 -11 10 0 5 -16 12 -35 16 -19 3
-33 9 -31 13 2 3 -56 8 -129 9 -89 3 -135 0 -139 -7z"/>
<path d="M3429 5529 c-7 -13 -13 -28 -14 -34 0 -5 -14 -30 -32 -55 -27 -39
-33 -60 -41 -140 -6 -52 -10 -106 -10 -120 -1 -38 -24 -143 -35 -157 -6 -9 -5
-23 3 -43 10 -25 10 -34 -4 -55 -21 -32 -38 -23 -35 19 6 61 -21 124 -54 126
-10 0 -3 -60 12 -110 25 -81 6 -134 -48 -132 -39 1 -101 38 -101 60 0 15 -2
15 -10 2 -8 -12 -10 -10 -10 10 -1 24 -2 23 -35 -15 -19 -22 -40 -39 -46 -37
-6 1 -8 -2 -5 -7 3 -5 -3 -19 -13 -32 -28 -36 -41 -94 -30 -132 5 -17 8 -54 7
-82 -3 -48 -2 -50 27 -55 17 -3 53 -2 80 2 28 4 104 12 170 18 171 14 306 29
318 37 25 16 -19 747 -55 893 -14 59 -23 67 -39 39z"/>
<path d="M3754 4666 c-9 -23 4 -36 37 -36 37 0 37 15 -1 35 -27 14 -31 14 -36
1z"/>
<path d="M2805 4540 c-3 -5 -1 -10 4 -10 6 0 11 5 11 10 0 6 -2 10 -4 10 -3 0
-8 -4 -11 -10z"/>
<path d="M3807 4449 c-20 -3 -39 -8 -42 -11 -3 -2 -2 -79 3 -169 l7 -164 25 0
c21 0 26 6 31 37 3 20 11 44 19 52 17 22 73 20 119 -4 21 -10 41 -16 45 -13
15 16 0 252 -17 270 -9 9 -142 10 -190 2z"/>
<path d="M1002 4430 c-21 -10 -53 -21 -71 -25 -28 -6 -45 -35 -20 -35 5 0 19
-20 30 -45 11 -25 23 -43 28 -41 4 3 33 7 65 10 88 9 99 24 72 101 -17 50 -48
60 -104 35z"/>
<path d="M3410 4395 c-47 -8 -159 -24 -250 -37 -193 -27 -212 -37 -201 -104 8
-47 20 -51 113 -34 52 10 80 11 120 2 29 -6 73 -15 98 -19 36 -6 46 -12 48
-31 5 -34 -52 -53 -193 -63 -163 -12 -161 -12 -171 -56 -4 -21 -7 -45 -6 -53
1 -8 6 -53 11 -100 5 -47 16 -115 26 -151 l16 -66 100 -7 c55 -4 106 -9 113
-12 16 -6 26 75 26 210 0 138 9 145 204 171 66 9 124 18 128 21 13 9 9 48 -13
120 -16 51 -20 82 -15 119 14 106 15 100 -29 101 -22 1 -78 -4 -125 -11z"/>
<path d="M2568 4364 c-33 -17 -42 -50 -39 -129 2 -54 13 -61 66 -40 37 14 50
25 62 53 13 31 13 40 -2 79 -9 24 -21 41 -25 38 -5 -3 -11 -1 -15 5 -8 13 -14
12 -47 -6z"/>
<path d="M1275 4228 c1 -13 3 -25 4 -28 1 -3 19 -6 41 -7 49 -1 80 -21 56 -35
-13 -7 -13 -12 -3 -28 6 -11 16 -20 21 -20 5 0 1 10 -10 23 -10 12 -12 16 -4
10 21 -19 40 -16 40 7 0 11 -5 20 -10 20 -6 0 -22 11 -36 25 -19 20 -83 55
-99 55 -1 0 -1 -10 0 -22z"/>
<path d="M2573 4025 c-35 -15 -35 -16 -37 -125 -1 -68 -11 -97 -37 -105 -10
-4 -17 -11 -14 -16 4 -5 -1 -9 -9 -9 -14 0 -14 -3 -4 -20 11 -18 10 -23 -12
-41 -14 -11 -38 -22 -53 -26 -15 -3 -32 -14 -38 -24 -14 -26 -8 -24 62 21 34
22 66 40 70 40 4 0 3 -15 -2 -32 -5 -18 -9 -34 -9 -35 0 -1 7 0 15 3 11 5 15
-1 15 -21 0 -23 2 -26 15 -15 12 10 16 8 25 -14 8 -23 23 -31 55 -28 6 0 37
12 70 26 70 29 67 21 68 232 0 113 -3 136 -19 165 -19 31 -24 34 -75 36 -30 2
-68 -4 -86 -12z"/>
<path d="M1794 3947 c-8 -22 -1 -41 21 -54 l20 -12 -20 -1 c-17 0 -18 -2 -5
-11 11 -8 7 -9 -20 -5 -18 4 -37 12 -41 18 -6 9 -19 6 -52 -10 -24 -12 -54
-22 -66 -22 -29 0 -63 -19 -56 -31 4 -5 36 -29 73 -53 37 -24 84 -58 106 -75
21 -17 44 -31 51 -31 18 0 45 -34 45 -58 0 -11 -11 -29 -25 -40 -29 -23 -30
-28 -12 -65 8 -19 18 -27 32 -25 17 3 20 11 20 58 0 53 1 55 33 66 42 13 52
28 52 82 0 72 21 102 110 156 44 27 80 52 80 57 0 12 -58 11 -142 -3 -62 -10
-74 -9 -102 6 -17 9 -36 27 -41 39 -12 26 -52 35 -61 14z"/>
<path d="M3794 3825 c-7 -18 1 -124 11 -133 15 -15 26 21 23 78 -3 62 -21 91
-34 55z"/>
<path d="M3547 3793 c-21 -20 7 -139 34 -146 17 -5 19 1 19 62 0 65 -10 91
-35 91 -7 0 -15 -3 -18 -7z"/>
<path d="M2388 3713 c-21 -9 -38 -22 -38 -29 0 -10 12 -6 40 12 22 15 40 28
40 30 0 2 -1 4 -2 3 -2 -1 -20 -8 -40 -16z"/>
<path d="M2542 3600 c0 -14 2 -19 5 -12 2 6 2 18 0 25 -3 6 -5 1 -5 -13z"/>
<path d="M2326 3573 c-3 -5 -37 -24 -73 -43 -37 -19 -68 -39 -69 -45 -6 -25
141 -106 165 -91 5 4 13 1 16 -4 5 -8 12 -7 23 2 10 7 34 22 55 32 20 11 37
23 37 27 0 4 -14 19 -31 34 -20 16 -31 35 -31 50 0 20 -6 25 -25 25 -14 0 -21
4 -18 10 7 12 -38 14 -49 3z"/>
<path d="M3120 3456 c-9 -8 -229 -37 -355 -46 -108 -8 -187 -29 -241 -65 -20
-13 -24 -24 -24 -65 0 -31 -8 -64 -20 -87 -11 -21 -20 -49 -20 -63 -1 -14 -21
-74 -46 -135 -25 -60 -54 -134 -65 -164 -26 -74 -117 -298 -139 -341 -43 -86
-30 -184 29 -214 38 -20 65 -20 221 0 155 20 179 28 260 88 36 26 115 75 175
110 105 60 234 139 450 279 55 36 114 71 130 80 37 19 152 146 188 209 38 65
36 99 -8 132 -40 31 -44 55 -15 81 11 10 20 27 20 38 0 21 -92 117 -132 138
-12 6 -64 13 -117 15 -53 1 -139 6 -191 9 -52 4 -97 4 -100 1z m260 -72 c98
-8 88 -17 -40 -33 -189 -24 -194 -26 -82 -29 56 -1 102 -6 102 -11 0 -14 -44
-30 -90 -34 -33 -3 -26 -4 25 -6 65 -2 68 -3 45 -15 -14 -7 -47 -16 -75 -20
-105 -14 -185 -29 -185 -36 0 -12 -50 -27 -130 -40 -41 -6 -82 -15 -90 -19
-14 -8 -56 -72 -115 -176 -33 -58 -46 -85 -111 -220 -26 -55 -50 -104 -52
-109 -6 -11 5 -5 80 46 31 21 59 38 62 38 2 0 32 18 65 40 33 22 64 40 70 40
5 0 11 3 13 8 2 4 20 16 42 27 71 36 21 26 -73 -15 -100 -44 -128 -47 -93 -12
27 27 28 36 5 27 -24 -9 34 52 70 73 31 19 35 32 10 33 -26 1 36 21 266 84 51
14 112 34 135 44 36 17 90 37 244 95 63 24 62 20 -12 -28 -80 -53 -84 -56 -57
-49 12 3 24 9 27 14 3 5 17 9 32 9 l27 -1 -26 -22 c-14 -12 -39 -32 -55 -45
l-29 -23 28 17 c54 33 36 6 -40 -57 -43 -36 -94 -76 -113 -89 -19 -13 -37 -27
-40 -30 -3 -3 -21 -17 -40 -30 -19 -14 -39 -28 -45 -32 -5 -5 -30 -21 -55 -37
-91 -57 -196 -125 -238 -152 -24 -16 -45 -29 -48 -29 -3 0 -31 -17 -62 -38
-65 -44 -194 -112 -211 -112 -7 0 -46 -24 -88 -52 -113 -79 -114 -80 -154 -65
-19 6 -37 17 -41 22 -13 17 -9 60 11 121 17 51 29 84 76 199 5 11 9 22 9 25 1
6 43 112 58 150 18 43 26 62 63 160 20 52 52 134 71 181 19 48 34 93 34 101 0
47 136 85 336 93 60 3 152 9 204 15 133 15 163 17 180 14 8 -2 53 -6 100 -10z"/>
<path d="M4082 2842 c-39 -42 -67 -78 -62 -80 4 -2 25 5 46 15 30 14 45 31 67
77 15 32 26 60 24 62 -2 2 -35 -31 -75 -74z"/>
<path d="M6842 3168 c-35 -18 -20 -33 33 -33 57 0 70 18 24 34 -18 6 -32 11
-33 10 -1 0 -11 -5 -24 -11z"/>
<path d="M6937 3139 c-9 -33 -1 -39 54 -39 37 0 49 4 49 15 0 9 -9 15 -25 15
-15 0 -24 5 -22 13 1 6 -10 13 -24 15 -20 2 -28 -2 -32 -19z"/>
<path d="M6990 2430 c0 -5 5 -10 10 -10 6 0 10 5 10 10 0 6 -4 10 -10 10 -5 0
-10 -4 -10 -10z"/>
<path d="M6257 2309 c-43 -17 -44 -49 -5 -126 l34 -68 105 -52 c57 -28 127
-57 154 -64 54 -13 94 -38 88 -55 -6 -18 109 -47 207 -51 78 -4 101 -1 130 14
45 23 50 70 10 90 -34 17 -51 42 -44 67 4 18 -2 24 -31 34 -40 15 -129 96
-139 128 -3 11 -21 31 -39 44 -26 20 -42 24 -87 22 -30 -2 -80 2 -110 8 -81
16 -241 21 -273 9z"/>
<path d="M7373 2253 c9 -2 23 -2 30 0 6 3 -1 5 -18 5 -16 0 -22 -2 -12 -5z"/>
<path d="M7100 2165 c-7 -8 -21 -15 -31 -15 -48 0 -87 -38 -57 -56 22 -14 99
-6 119 12 19 17 19 19 2 25 -16 5 -15 7 5 13 13 4 21 13 19 19 -6 18 -42 20
-57 2z"/>
<path d="M7150 2081 c0 -11 40 -22 52 -15 5 3 6 10 3 15 -8 12 -55 12 -55 0z"/>
<path d="M4845 1616 c-16 -12 -16 -13 -1 -19 18 -7 46 1 46 13 0 15 -28 19
-45 6z"/>
<path d="M4490 1411 c0 -16 -4 -32 -9 -35 -13 -8 11 -56 27 -56 18 0 12 112
-5 118 -9 2 -13 -7 -13 -27z"/>
<path d="M4310 1420 c0 -5 5 -10 10 -10 6 0 10 5 10 10 0 6 -4 10 -10 10 -5 0
-10 -4 -10 -10z"/>
<path d="M4688 1413 c7 -3 16 -2 19 1 4 3 -2 6 -13 5 -11 0 -14 -3 -6 -6z"/>
<path d="M5740 1142 c0 -25 51 -72 78 -72 12 0 22 5 22 10 0 6 -4 10 -8 10 -5
0 -16 16 -25 35 -13 26 -23 35 -42 35 -17 0 -25 -5 -25 -18z"/>
</g>
</svg>
